<?xml version="1.0" encoding="utf-8"?>
<!-- Generator: Adobe Illustrator 22.0.1, SVG Export Plug-In . SVG Version: 6.00 Build 0)  -->
<svg version="1.1" id="Layer_1" xmlns="http://www.w3.org/2000/svg" xmlns:xlink="http://www.w3.org/1999/xlink" x="0px" y="0px"
	 viewBox="0 0 100 100" style="enable-background:new 0 0 100 100;" xml:space="preserve">
<style type="text/css">
	.st0{fill:#FFFFFF;}
	.st1{clip-path:url(#SVGID_2_);}
	.st2{fill:#004C8F;stroke:#004C8F;stroke-width:2;}
	.st3{fill:none;stroke:#004C8F;stroke-miterlimit:10;}
</style>
<g transform="translate(3 4)">
	<rect x="58.1" y="14.5" class="st0" width="17.1" height="11.8"/>
	<path class="st0" d="M17,77.5l17.5-21.3L52,77.5H17z"/>
	<path class="st0" d="M55.5,77.5L44.3,63.8L56.7,43l20.7,34.6L55.5,77.5L55.5,77.5z"/>
	<g>
		<g>
			<g>
				<defs>
					<rect id="SVGID_1_" x="9.8" y="8" width="74.3" height="76"/>
				</defs>
				<clipPath id="SVGID_2_">
					<use xlink:href="#SVGID_1_"  style="overflow:visible;"/>
				</clipPath>
				<g class="st1">
					<path class="st2" d="M76.6,29c0.7,0,1.4-0.6,1.4-1.4l0,0V13.1c0-0.7-0.6-1.4-1.4-1.4l0,0H56.7c-0.7,0-1.4,0.6-1.4,1.4v26.8
						L42.4,61.5l-6.9-8.4c-0.5-0.6-1.4-0.7-2-0.1c-0.1,0-0.1,0.1-0.1,0.1L13,78c-0.5,0.6-0.4,1.4,0.2,1.9c0.2,0.2,0.6,0.3,0.8,0.3
						h65.8c0.7,0,1.4-0.6,1.4-1.4c0-0.2-0.1-0.5-0.2-0.7L58.1,39.9V29H76.6z M75.2,26.3H58.1V14.5h17.1V26.3z M17,77.5l17.5-21.3
						L52,77.5H17z M55.5,77.5L44.3,63.8L56.7,43l20.7,34.6L55.5,77.5L55.5,77.5z"/>
					<path class="st3" d="M76.6,29c0.7,0,1.4-0.6,1.4-1.4l0,0V13.1c0-0.7-0.6-1.4-1.4-1.4l0,0H56.7c-0.7,0-1.4,0.6-1.4,1.4v26.8
						L42.4,61.5l-6.9-8.4c-0.5-0.6-1.4-0.7-2-0.1c-0.1,0-0.1,0.1-0.1,0.1L13,78c-0.5,0.6-0.4,1.4,0.2,1.9c0.2,0.2,0.6,0.3,0.8,0.3
						h65.8c0.7,0,1.4-0.6,1.4-1.4c0-0.2-0.1-0.5-0.2-0.7L58.1,39.9V29H76.6z M75.2,26.3H58.1V14.5h17.1V26.3z M17,77.5l17.5-21.3
						L52,77.5H17z M55.5,77.5L44.3,63.8L56.7,43l20.7,34.6L55.5,77.5L55.5,77.5z"/>
				</g>
			</g>
		</g>
	</g>
</g>
</svg>
