<?xml version="1.0" encoding="utf-8"?>
<!-- Generator: Adobe Illustrator 22.0.1, SVG Export Plug-In . SVG Version: 6.00 Build 0)  -->
<svg version="1.1" id="Layer_1" xmlns="http://www.w3.org/2000/svg" xmlns:xlink="http://www.w3.org/1999/xlink" x="0px" y="0px"
	 viewBox="0 0 100 100" style="enable-background:new 0 0 100 100;" xml:space="preserve">
<style type="text/css">
	.st0{fill:#FFFFFF;}
	.st1{clip-path:url(#SVGID_2_);}
	.st2{fill:#004C8F;}
</style>
<polygon class="st0" points="39.8,35.4 48,35.4 48,43.3 41.2,42.5 "/>
<polygon class="st0" points="52.8,19.1 69.9,17 67.1,31.1 50.9,35 "/>
<polygon class="st0" points="29.6,3.3 49.3,12 50.5,26 30.8,17 "/>
<rect x="30.7" y="63.2" class="st0" width="39.6" height="34"/>
<rect x="34.4" y="49.8" class="st0" width="32.3" height="16.1"/>
<g>
	<g>
		<g>
			<defs>
				<rect id="SVGID_1_" x="25.9" width="48.2" height="99.9"/>
			</defs>
			<clipPath id="SVGID_2_">
				<use xlink:href="#SVGID_1_"  style="overflow:visible;"/>
			</clipPath>
			<g class="st1">
				<path class="st2" d="M50.2,86.7c3.5,0,6.3-2.8,6.3-6.3s-2.8-6.3-6.3-6.3s-6.3,2.8-6.3,6.3C43.8,83.9,46.6,86.7,50.2,86.7
					L50.2,86.7 M50.2,78.5c1,0,1.8,0.8,1.8,1.8s-0.8,1.8-1.8,1.8s-1.8-0.8-1.8-1.8C48.3,79.3,49.2,78.5,50.2,78.5L50.2,78.5"/>
				<path class="st2" d="M69.5,60.8V49.7c0-1.2-1-2.2-2.2-2.2H52.5V46l0,0v-6.4c4-1,13.3-4,18.1-10.8c2.4-3.5,3.3-7.7,2.4-11.9
					c-0.1-0.8-0.7-1.3-1.3-1.7C65.6,13,59,13.7,53.7,17C50.7,5,36.4,0.7,28.6,0c-1.1-0.1-2.2,0.7-2.4,1.9
					c-0.1,0.6-2.1,14.4,7.7,20.3c4.4,2.7,9.1,4.6,14.1,5.6v4.9c-2.5-1.9-5.7-2.4-8.6-1.5c-0.6,0.2-1.1,0.7-1.3,1.3
					c-1.1,3.3-0.9,7,0.8,10c1.7,2.5,4.3,4.1,7.2,4.7H33.7c-1.2,0-2.2,1-2.2,2.2v11.3c-2.5,0.9-4,3.3-4,5.8v26.9
					c0,3.5,2.8,6.3,6.3,6.3H68c3.5,0,6.3-2.8,6.3-6.3V66.8C74.1,64,72.2,61.6,69.5,60.8 M68.6,18.9c0.3,2.6-0.3,5.2-1.9,7.3
					c-3.4,4.9-10.4,7.5-14.4,8.6V24.7C55.8,19.3,62.6,16.9,68.6,18.9 M30.4,4.8c5.4,0.9,18.7,4.3,19.3,16c-0.6,0.7-1,1.3-1.5,2.1
					c-0.1,0.1-0.1,0.2-0.1,0.4c-4.3-1-8.2-2.7-11.9-4.9C30.8,15.2,30.4,8.3,30.4,4.8 M42.6,40.3c-0.8-1.5-1.1-3.3-0.7-4.9
					c2.4,0.3,4.5,1.5,6.1,3.3v4.7C45.9,43.1,43.9,41.9,42.6,40.3 M65,60.5H52.5v-8.6H65V60.5z M35.9,51.9h12v8.6h-12V51.9z
					 M69.6,93.7c0,1-0.8,1.8-1.8,1.8H33.6c-1,0-1.8-0.8-1.8-1.8V66.8c0-1,0.8-1.8,1.8-1.8H48v1.3c-7.7,1.2-13,8.5-11.8,16.3
					c1.2,7.7,8.5,13,16.3,11.8s13-8.5,11.8-16.3c-1-6.1-5.7-10.8-11.8-11.8V65h15.4c1,0,1.8,0.8,1.8,1.8v26.9H69.6z M50.2,70.6
					c5.4,0,9.6,4.4,9.6,9.6c0,5.4-4.4,9.6-9.6,9.6c-5.4,0-9.6-4.4-9.6-9.6l0,0C40.5,75,44.8,70.6,50.2,70.6"/>
			</g>
		</g>
	</g>
</g>
</svg>
