<svg width="100%" height="100%" viewBox="0 0 517 351" fill="none" xmlns="http://www.w3.org/2000/svg">
<path fill-rule="evenodd" clip-rule="evenodd" d="M278.682 114.131L227.705 145.711C217.954 151.752 205.62 151.752 195.869 145.711L144.892 114.131C141.245 111.877 139.033 107.893 139.033 103.601V91.07L172.75 77.8843L211.779 55.3472L284.527 91.07V103.601C284.542 107.893 282.33 111.877 278.682 114.131Z" fill="#00CCFF"/>
<path fill-rule="evenodd" clip-rule="evenodd" d="M281.886 86.4879C285.418 88.5266 285.418 93.6231 281.886 95.6617L250.825 113.617L223.527 129.365C216.275 133.563 207.329 133.563 200.063 129.365L172.765 113.617L141.691 95.6617C138.158 93.6231 138.158 88.5266 141.691 86.4879L172.765 68.5517L200.063 52.7944C207.315 48.5956 216.261 48.5956 223.527 52.7944L250.825 68.5517L281.886 86.4879Z" fill="#89E7FF"/>
<path fill-rule="evenodd" clip-rule="evenodd" d="M166.517 217.549L105.732 255.199C94.1007 262.409 79.3957 262.409 67.7642 255.199L6.99326 217.549C2.64222 214.856 0 210.106 0 204.99V190.047L40.222 174.317L86.7623 147.45L173.51 190.047V204.99C173.51 210.106 170.868 214.856 166.517 217.549Z" fill="#00CCFF"/>
<path fill-rule="evenodd" clip-rule="evenodd" d="M170.352 184.576C174.574 186.998 174.574 193.086 170.352 195.526L133.303 216.932L100.75 235.729C92.091 240.722 81.4359 240.722 72.777 235.729L40.2231 216.932L3.17465 195.526C-1.04715 193.104 -1.04715 187.016 3.17465 184.576L40.2231 163.17L72.777 144.373C81.4359 139.38 92.091 139.38 100.75 144.373L133.303 163.17L170.352 184.576Z" fill="#89E7FF"/>
<path fill-rule="evenodd" clip-rule="evenodd" d="M376.171 237.319L288.575 291.576C271.817 301.966 250.622 301.966 233.864 291.576L146.269 237.319C140.008 233.447 136.203 226.611 136.203 219.242V181.471L194.159 158.803L261.22 120.088L386.237 181.471V219.242C386.237 226.592 382.432 233.447 376.171 237.319Z" fill="#00CCFF"/>
<path fill-rule="evenodd" clip-rule="evenodd" d="M381.685 173.569C387.759 177.076 387.759 185.848 381.685 189.354L328.295 220.186L281.381 247.268C268.902 254.469 253.538 254.469 241.073 247.268L194.173 220.186L140.784 189.354C134.71 185.848 134.71 177.076 140.784 173.569L194.173 142.737L241.073 115.655C253.552 108.454 268.917 108.454 281.381 115.655L328.295 142.737L381.685 173.569Z" fill="#89E7FF"/>
<path fill-rule="evenodd" clip-rule="evenodd" d="M510.007 258.378L449.221 296.027C437.59 303.237 422.885 303.237 411.254 296.027L350.483 258.378C346.132 255.685 343.49 250.934 343.49 245.819V230.875L383.712 215.146L430.252 188.279L517 230.875V245.819C517 250.934 514.357 255.685 510.007 258.378Z" fill="#00CCFF"/>
<path fill-rule="evenodd" clip-rule="evenodd" d="M513.825 225.405C518.047 227.827 518.047 233.915 513.825 236.355L476.776 257.761L444.223 276.558C435.564 281.551 424.909 281.551 416.249 276.558L383.696 257.761L346.648 236.355C342.426 233.933 342.426 227.846 346.648 225.405L383.696 203.999L416.249 185.203C424.909 180.209 435.564 180.209 444.223 185.203L476.776 203.999L513.825 225.405Z" fill="#89E7FF"/>
<path fill-rule="evenodd" clip-rule="evenodd" d="M295.598 319.369L251.815 346.479C243.443 351.669 232.846 351.669 224.474 346.479L180.69 319.369C177.56 317.423 175.665 314.01 175.665 310.335V299.562L204.628 288.228L238.144 268.87L300.624 299.543V310.316C300.624 314.01 298.714 317.423 295.598 319.369Z" fill="#00CCFF"/>
<path fill-rule="evenodd" clip-rule="evenodd" d="M298.356 295.616C301.385 297.365 301.385 301.741 298.356 303.499L271.675 318.911L248.225 332.452C241.993 336.052 234.31 336.052 228.078 332.452L204.628 318.911L177.947 303.499C174.917 301.741 174.917 297.365 177.947 295.616L204.628 280.205L228.078 266.664C234.31 263.054 241.993 263.054 248.225 266.664L271.675 280.205L298.356 295.616Z" fill="#89E7FF"/>
<path opacity="0.2" d="M89.793 212.013L49.1546 188.55C44.3153 185.745 44.3153 178.769 49.1546 175.973L58.9768 170.296C62.897 168.024 67.7362 168.024 71.6565 170.296L112.295 193.759C117.134 196.564 117.134 203.541 112.295 206.346L102.473 212.013C98.5529 214.286 93.7135 214.286 89.793 212.013Z" fill="black"/>
<path opacity="0.2" d="M443.031 254.722L402.393 231.259C397.554 228.462 397.554 221.477 402.393 218.681L412.215 213.004C416.136 210.741 420.975 210.741 424.895 213.004L465.534 236.477C470.373 239.273 470.373 246.249 465.534 249.055L455.711 254.722C451.791 256.994 446.953 256.994 443.031 254.722Z" fill="black"/>
<path opacity="0.2" d="M253.626 226.302L326.315 184.323C334.428 179.648 334.428 167.93 326.315 163.245L305.307 151.107C301.544 148.937 296.905 148.937 293.129 151.107L220.44 193.086C212.326 197.771 212.326 209.488 220.44 214.173L241.448 226.302C245.21 228.49 249.862 228.49 253.626 226.302Z" fill="black"/>
<path d="M45.1627 116.731C47.4891 115.468 50.6482 115.693 54.152 117.703C65.1086 124.034 76.0652 130.356 87.0217 136.677C94.1446 140.801 99.9313 150.808 99.9313 159.056C99.9313 164.938 99.9313 201.661 99.9313 207.506L87.0217 188.906C76.0652 182.575 65.1086 176.253 54.152 169.922C47.0295 165.798 41.2425 155.792 41.2425 147.563C41.2425 140.091 41.2425 132.628 41.2425 125.156C41.2281 120.967 42.7359 118.04 45.1627 116.731Z" fill="#F14290"/>
<path d="M58.4893 109.016C60.8155 107.678 64.0465 107.865 67.6221 109.923C78.5788 116.244 89.5353 122.575 100.492 128.897C107.615 133.012 113.401 143.027 113.401 151.256C113.401 157.157 113.401 193.881 113.401 199.725L99.9314 207.506C99.9314 201.661 99.9314 164.938 99.9314 159.056C99.9314 150.826 94.1447 140.801 87.0223 136.677C76.0657 130.356 65.1092 124.025 54.1526 117.703C50.6488 115.692 47.4896 115.468 45.1633 116.731C49.5574 114.196 53.9372 111.662 58.3313 109.128C58.3887 109.09 58.4462 109.044 58.4893 109.016Z" fill="#FF74B8"/>
<path d="M53.8939 140.053C51.5102 138.669 49.5859 139.492 49.5859 141.877C49.5859 144.261 51.5102 147.301 53.8939 148.685C56.2777 150.059 58.2019 149.246 58.2019 146.861C58.2019 144.476 56.2777 141.419 53.8939 140.053Z" fill="#FAFFFF"/>
<path d="M67.5642 147.937C65.1805 146.553 63.2563 147.376 63.2563 149.76C63.2563 152.145 65.1805 155.184 67.5642 156.568C69.948 157.943 71.8722 157.129 71.8722 154.745C71.8866 152.36 69.948 149.311 67.5642 147.937Z" fill="#FAFFFF"/>
<path d="M81.2508 155.829C78.867 154.455 76.9429 155.277 76.9429 157.662C76.9429 160.037 78.867 163.086 81.2508 164.461C83.6345 165.845 85.5588 165.022 85.5588 162.637C85.5588 160.252 83.6202 157.213 81.2508 155.829Z" fill="#FAFFFF"/>
<path opacity="0.2" d="M234.741 313.365L226.757 308.755C224.33 307.343 224.33 303.845 226.757 302.433L234.612 297.898C237.541 296.205 241.16 296.205 244.089 297.898L252.073 302.508C254.5 303.911 254.5 307.417 252.073 308.83L244.218 313.365C241.289 315.058 237.67 315.058 234.741 313.365Z" fill="black"/>
<path opacity="0.2" d="M207.988 107.463L197.132 101.188C193.829 99.2806 193.829 94.4926 197.132 92.5849L207.815 86.4222C211.807 84.1311 216.719 84.1311 220.711 86.4222L231.567 92.7064C234.869 94.6142 234.869 99.3928 231.567 101.301L220.883 107.463C216.891 109.773 211.98 109.773 207.988 107.463Z" fill="black"/>
<path d="M228.479 246.053C225.176 247.96 221.859 249.868 218.556 251.785V251.795C220.524 250.644 223.238 250.803 226.253 252.543C232.255 256.022 237.109 264.447 237.109 271.367C237.109 267.898 238.33 265.467 240.297 264.344L240.283 264.335C242.293 263.166 244.318 262.006 246.314 260.847C244.777 255.199 240.8 249.494 236.133 246.81C233.175 245.071 230.461 244.921 228.479 246.053Z" fill="#FF74B8"/>
<path d="M215.398 258.818C215.398 262.035 216.533 265.523 218.169 268.787C224.473 281.392 230.806 294.008 237.125 306.614C243.099 300.75 249.416 295.438 256.079 290.669C257.803 289.453 258.851 287.125 258.851 283.927C258.851 276.988 253.998 268.553 247.995 265.093C244.994 263.372 242.294 263.204 240.327 264.345C238.345 265.467 237.139 267.908 237.139 271.368C237.139 264.438 232.27 256.003 226.283 252.543C223.268 250.822 220.553 250.645 218.586 251.795C216.605 252.917 215.398 255.358 215.398 258.818Z" fill="#F14290"/>
<path d="M258.866 283.926C258.866 287.143 257.818 289.434 256.094 290.669C249.431 295.429 243.098 300.75 237.14 306.613L247.063 300.881C253.036 295.027 259.354 289.706 266.017 284.946C267.741 283.721 268.789 281.392 268.789 278.194C268.789 271.255 263.935 262.829 257.933 259.369C254.932 257.639 252.217 257.471 250.25 258.621C248.958 259.369 247.68 260.108 246.373 260.856C244.363 262.006 242.338 263.166 240.342 264.344L240.357 264.363C242.323 263.231 245.023 263.39 248.024 265.111C253.998 268.552 258.866 276.988 258.866 283.926Z" fill="#FF74B8"/>
<path fill-rule="evenodd" clip-rule="evenodd" d="M279.083 188.578L277.964 188.064L271.731 184.155C269.448 182.809 268.787 180.508 268.787 178.264L268.816 131.721L289.882 131.609L289.839 178.413C289.839 182.247 289.092 183.884 286.292 185.82C285.373 186.465 284.225 187.138 282.803 187.943C281.683 188.55 280.362 188.924 279.083 188.578Z" fill="#FFDA44"/>
<path fill-rule="evenodd" clip-rule="evenodd" d="M277.964 188.064L271.732 184.155C269.448 182.809 268.773 180.508 268.788 178.264L268.816 143.859L275.838 140.409L275.795 182.257C275.795 184.23 276.24 186.858 277.964 188.064Z" fill="#FDC500"/>
<path fill-rule="evenodd" clip-rule="evenodd" d="M255.95 170.745C248.842 177.506 242.969 185.09 237.355 194.75L195.395 115.506C201.153 115.87 206.653 116.141 212.009 116.141C242.366 116.141 258.406 105.294 283.708 91.5937C292.611 86.095 303.324 96.7932 307.775 103.592C312.184 110.334 317.669 124.483 312.285 133.068C310.518 135.873 308.235 136.705 305.478 138.202L289.897 146.656C278.295 152.949 265.442 161.693 255.95 170.745Z" fill="#4B39AA"/>
<path fill-rule="evenodd" clip-rule="evenodd" d="M225.881 173.092L195.381 115.506C201.139 115.87 206.639 116.141 211.995 116.141C242.352 116.141 258.392 105.294 283.694 91.5937C292.597 86.095 303.31 96.7932 307.761 103.592C308.91 105.35 310.131 107.622 311.222 110.166C309.671 111.232 307.933 112.017 306.024 113.055L285.59 124.137C270.396 132.385 253.553 143.841 241.103 155.689C235.545 160.991 230.563 166.677 225.881 173.092Z" fill="#4B39AA"/>
<path fill-rule="evenodd" clip-rule="evenodd" d="M161.779 143.654C161.707 166.677 177.948 194.779 197.965 206.356C217.983 217.914 234.325 208.6 234.397 185.586C234.468 162.581 218.227 134.452 198.195 122.903C178.177 111.326 161.837 120.649 161.779 143.654Z" fill="#FFDA44"/>
<path fill-rule="evenodd" clip-rule="evenodd" d="M166.216 143.672C166.158 165.153 181.595 191.767 200.191 202.512C217.136 212.284 229.902 205.261 229.959 185.576C230.017 164.087 214.58 137.482 195.984 126.737C179.039 116.955 166.273 123.978 166.216 143.672Z" fill="#000B7B"/>
<path fill-rule="evenodd" clip-rule="evenodd" d="M289.884 146.655L308.638 136.49C308.767 136.415 308.897 136.359 309.012 136.284L309.169 136.2L309.012 136.284C308.882 136.359 308.767 136.434 308.638 136.49L289.884 146.655Z" fill="url(#paint0_radial_164_1125)"/>
<path fill-rule="evenodd" clip-rule="evenodd" d="M314.467 124.754C314.467 124.745 314.467 124.745 314.467 124.726C314.467 124.745 314.467 124.745 314.467 124.754ZM314.467 124.717C314.467 124.698 314.467 124.698 314.467 124.679C314.467 124.698 314.467 124.717 314.467 124.717ZM314.467 124.679C314.495 123.595 314.452 122.491 314.337 121.35C314.452 122.491 314.495 123.595 314.467 124.679Z" fill="url(#paint1_radial_164_1125)"/>
<path fill-rule="evenodd" clip-rule="evenodd" d="M314.251 120.602C313.548 114.86 311.164 108.8 307.761 103.592C311.179 108.8 313.548 114.879 314.251 120.602Z" fill="url(#paint2_radial_164_1125)"/>
<path fill-rule="evenodd" clip-rule="evenodd" d="M314.338 121.35C314.309 121.107 314.28 120.855 314.251 120.602C314.294 120.864 314.323 121.107 314.338 121.35Z" fill="#619FB1"/>
<path fill-rule="evenodd" clip-rule="evenodd" d="M232.787 202.924L232.744 202.849C232.817 202.765 232.889 202.681 232.975 202.596L232.787 202.924Z" fill="url(#paint3_linear_164_1125)"/>
<path fill-rule="evenodd" clip-rule="evenodd" d="M179.197 116.572L179.24 116.544L179.269 116.525C181.882 115.122 184.854 114.402 188.099 114.402C190.397 114.402 192.824 114.757 195.365 115.506C198.367 116.394 201.512 117.806 204.728 119.789C213.014 124.885 220.553 132.881 226.455 142.176C234.554 154.941 239.565 170.119 239.206 183.482C239.091 187.727 238.431 191.496 237.326 194.741C234.425 203.195 226.326 208.282 222.664 209.516L222.635 209.442C229.816 205.954 234.324 197.64 234.367 185.577C234.439 162.572 218.198 134.433 198.166 122.893C197.864 122.716 197.563 122.547 197.261 122.388L197.19 122.342C196.917 122.183 196.63 122.042 196.357 121.902L196.271 121.855C195.984 121.696 195.682 121.556 195.394 121.406L195.38 121.397C195.093 121.247 194.791 121.107 194.504 120.976L194.418 120.939C194.145 120.808 193.887 120.696 193.614 120.574L193.513 120.537C193.241 120.415 192.968 120.303 192.695 120.191L192.638 120.163C192.365 120.041 192.078 119.948 191.804 119.845L191.689 119.798C191.445 119.714 191.187 119.611 190.943 119.527L190.814 119.489C190.57 119.396 190.311 119.312 190.067 119.237L189.952 119.209C189.694 119.125 189.435 119.05 189.177 118.984C189.12 118.966 189.077 118.956 189.019 118.938C188.789 118.881 188.573 118.825 188.358 118.769L188.171 118.723C187.956 118.666 187.741 118.62 187.525 118.582C187.453 118.564 187.382 118.554 187.31 118.535C187.08 118.498 186.865 118.433 186.635 118.395C186.563 118.377 186.492 118.367 186.42 118.348C186.219 118.32 186.032 118.283 185.831 118.246C185.745 118.236 185.673 118.218 185.587 118.208C185.401 118.18 185.213 118.152 185.026 118.133C184.926 118.124 184.825 118.105 184.725 118.096C184.553 118.077 184.38 118.049 184.208 118.03C184.093 118.021 183.978 118.021 183.878 118.002C183.72 117.993 183.548 117.974 183.39 117.965C183.289 117.965 183.189 117.946 183.088 117.946C182.93 117.937 182.787 117.937 182.629 117.937C182.485 117.937 182.356 117.918 182.213 117.918C182.098 117.918 181.983 117.918 181.868 117.918C181.723 117.918 181.566 117.918 181.422 117.918C181.307 117.918 181.192 117.918 181.077 117.937C180.948 117.937 180.805 117.946 180.676 117.946C180.546 117.946 180.431 117.965 180.302 117.974C180.13 117.993 179.972 118.002 179.8 118.021C179.728 118.021 179.671 118.03 179.599 118.03C179.427 118.049 179.254 118.077 179.082 118.096C179.025 118.105 178.967 118.105 178.91 118.124C178.435 118.189 177.976 118.283 177.516 118.376L177.43 118.395C177.244 118.433 177.057 118.479 176.856 118.526L176.827 118.535C175.463 118.9 174.17 119.386 172.95 120.032L172.921 120.041L179.197 116.572Z" fill="#FFDA44"/>
<path fill-rule="evenodd" clip-rule="evenodd" d="M198.166 201.951C197.807 201.736 197.434 201.521 197.06 201.306C197.434 201.521 197.807 201.736 198.166 201.951ZM197.017 201.259C197.017 201.259 197.003 201.24 196.989 201.24C197.003 201.24 197.003 201.259 197.017 201.259ZM196.96 201.212L196.946 201.203L196.96 201.212ZM196.902 201.184L196.888 201.175L196.902 201.184ZM196.816 201.147L196.802 201.128L196.816 201.147ZM196.759 201.1L196.745 201.091L196.759 201.1ZM196.443 200.904L196.429 200.885L196.443 200.904ZM196.386 200.857L196.371 200.838H196.357H196.343H196.357H196.371L196.386 200.857ZM196.314 200.81L196.285 200.801L196.314 200.81ZM196.256 200.773L196.242 200.754L196.256 200.773ZM196.113 200.689L196.099 200.67L196.113 200.689ZM195.998 200.614L195.984 200.595L195.998 200.614ZM166.818 145.664C166.818 145.58 166.818 145.496 166.818 145.412C166.833 145.496 166.833 145.58 166.818 145.664ZM166.833 145.412V145.393V145.412ZM167.335 140.081V140.063L167.35 139.95L167.335 140.081ZM200.765 129.037L200.751 129.018L200.765 129.037ZM200.736 129.009L200.708 128.99L200.679 128.981L200.65 128.962L200.622 128.953L200.593 128.934L200.564 128.925L200.535 128.906L200.507 128.897L200.478 128.878L200.449 128.859L200.421 128.85L200.392 128.831L200.363 128.822L200.334 128.803L200.306 128.794L200.277 128.775L200.248 128.766L200.22 128.747L200.191 128.738L200.162 128.719L200.133 128.71L200.105 128.691L200.076 128.672L200.047 128.663L200.019 128.644L199.961 128.616L199.932 128.607L199.904 128.588L199.846 128.56L199.789 128.532L199.746 128.504L199.717 128.495L199.645 128.448L199.545 128.373L199.487 128.345L199.459 128.336L199.401 128.308L199.344 128.27L199.315 128.261L199.272 128.233L199.243 128.214L199.215 128.205L199.186 128.186L199.157 128.177L199.129 128.158L199.1 128.149L199.071 128.13L199.042 128.121L199.014 128.102L198.985 128.093L198.956 128.074L198.913 128.046L198.87 128.018L198.827 127.99L198.783 127.962L198.74 127.934L198.697 127.906L198.654 127.868L198.611 127.84L198.568 127.812L198.525 127.784L198.482 127.756L198.438 127.728L198.395 127.7L198.352 127.672L198.309 127.644L198.266 127.616L198.223 127.588L198.18 127.56L198.137 127.532L198.094 127.503L198.051 127.466L198.008 127.438L197.965 127.41L197.922 127.382L197.879 127.354L197.836 127.326L197.792 127.298L197.749 127.27L197.706 127.242L197.663 127.214L197.62 127.186L197.577 127.158L197.534 127.129L197.491 127.101L197.448 127.064L197.405 127.036L197.362 127.008L197.319 126.98L197.276 126.952L197.233 126.924L197.19 126.896L197.146 126.868L197.103 126.84L197.06 126.812L197.017 126.783L196.974 126.755L196.931 126.727L196.888 126.699L196.845 126.662L196.802 126.634L196.759 126.606L196.716 126.578L196.673 126.55L196.63 126.522L196.587 126.494L196.544 126.465L196.5 126.437L196.457 126.409L196.414 126.381L196.371 126.353L196.328 126.325L196.285 126.297L196.242 126.26L196.199 126.232L196.242 126.26L196.285 126.297L196.328 126.325L196.371 126.353L196.414 126.381L196.457 126.409L196.5 126.437L196.544 126.465L196.587 126.494L196.63 126.522L196.673 126.55L196.716 126.578L196.759 126.606L196.802 126.634L196.845 126.662L196.888 126.699L196.931 126.727L196.974 126.755L197.017 126.783L197.06 126.812L197.103 126.84L197.146 126.868L197.19 126.896L197.233 126.924L197.276 126.952L197.319 126.98L197.362 127.008L197.405 127.036L197.448 127.064L197.491 127.101L197.534 127.129L197.577 127.158L197.62 127.186L197.663 127.214L197.706 127.242L197.749 127.27L197.792 127.298L197.836 127.326L197.879 127.354L197.922 127.382L197.965 127.41L198.008 127.438L198.051 127.466L198.094 127.503L198.137 127.532L198.18 127.56L198.223 127.588L198.266 127.616L198.309 127.644L198.352 127.672L198.395 127.7L198.438 127.728L198.482 127.756L198.525 127.784L198.568 127.812L198.611 127.84L198.654 127.868L198.697 127.906L198.74 127.934L198.783 127.962L198.827 127.99L198.87 128.018L198.913 128.046L198.956 128.074L198.985 128.093L199.014 128.102L199.042 128.121L199.071 128.13L199.1 128.149L199.129 128.158L199.157 128.177L199.186 128.186L199.215 128.205L199.243 128.214L199.272 128.233L199.315 128.261L199.344 128.27L199.401 128.308L199.459 128.336L199.487 128.345L199.545 128.373L199.645 128.448L199.717 128.495L199.746 128.504L199.789 128.532L199.846 128.56L199.904 128.588L199.932 128.607L199.961 128.616L200.019 128.644L200.047 128.663L200.076 128.672L200.105 128.691L200.133 128.71L200.162 128.719L200.191 128.738L200.22 128.747L200.248 128.766L200.277 128.775L200.306 128.794L200.334 128.803L200.363 128.822L200.392 128.831L200.421 128.85L200.449 128.859L200.478 128.878L200.507 128.897L200.535 128.906L200.564 128.925L200.593 128.934L200.622 128.953L200.65 128.962L200.679 128.981L200.708 128.99L200.736 129.009Z" fill="url(#paint4_linear_164_1125)"/>
<path fill-rule="evenodd" clip-rule="evenodd" d="M213.101 142.045C218.701 149.096 223.311 157.372 226.283 165.788L201.483 173.485C201.139 173.597 200.78 173.653 200.392 173.653C199.473 173.653 198.424 173.345 197.333 172.662C197.319 172.662 197.319 172.653 197.305 172.653C193.7 170.427 190.886 165.199 191.001 160.972C191.058 159.018 191.718 157.615 192.782 156.895L213.101 142.045Z" fill="#4B39AA"/>
<path fill-rule="evenodd" clip-rule="evenodd" d="M206.954 146.524C207.084 146.599 207.213 146.683 207.356 146.758C213.517 150.536 218.341 159.448 218.14 166.677C218.126 167.266 218.069 167.827 217.997 168.342L201.497 173.466C201.153 173.588 200.794 173.644 200.406 173.644C199.487 173.644 198.44 173.326 197.347 172.653C197.333 172.653 197.333 172.634 197.319 172.634C193.715 170.408 190.9 165.181 191.015 160.963C191.072 159.009 191.733 157.597 192.796 156.886L206.954 146.524Z" fill="#4B39AA"/>
<path fill-rule="evenodd" clip-rule="evenodd" d="M200.291 173.644C199.373 173.644 198.324 173.326 197.233 172.653C197.218 172.653 197.218 172.634 197.204 172.634C193.6 170.408 190.785 165.181 190.9 160.963C190.957 159.009 191.618 157.597 192.681 156.886C193.226 156.512 193.872 156.325 194.59 156.325C195.51 156.325 196.558 156.643 197.649 157.316C201.267 159.542 204.097 164.769 203.982 169.015C203.91 171.428 202.905 173.008 201.368 173.494C201.038 173.588 200.679 173.644 200.291 173.644Z" fill="#FFDA44"/>
<path d="M207.069 88.1523L215.944 99.2619L202.962 91.7714L202.259 90.883C202.603 90.7053 202.962 90.5089 203.335 90.3032C204.57 89.5831 205.82 88.8724 207.069 88.1523Z" fill="#AF8EFF"/>
<path d="M244.547 18.9045C244.547 28.6114 244.547 38.3277 244.547 48.0439C244.547 58.2464 237.382 70.6465 228.55 75.7431C227.301 76.4631 226.067 77.1739 224.817 77.8939L215.943 99.2622L207.068 88.1526C205.819 88.8726 204.569 89.5834 203.335 90.3034C202.976 90.5185 202.617 90.7056 202.258 90.8832C198.265 92.8938 194.675 92.9592 192.02 91.4069C191.948 91.3695 191.876 91.3227 191.804 91.2853C189.033 89.5553 187.323 86.0205 187.323 81.0548C187.323 71.3479 187.323 61.641 187.323 51.9341C187.323 41.7223 194.489 29.3221 203.32 24.2162C211.72 19.3627 220.136 14.5094 228.536 9.65591C232.873 7.1497 236.793 6.8691 239.666 8.4308C239.723 8.45886 239.78 8.48697 239.838 8.53373C242.767 10.2264 244.547 13.7986 244.547 18.9045Z" fill="#923EFF"/>
<path d="M179.039 83.9441C176.138 82.2796 174.357 78.6886 174.357 73.592C174.357 63.8757 174.357 54.1689 174.357 44.4527C174.357 34.2408 181.524 21.8407 190.354 16.7441C198.755 11.8907 207.17 7.0372 215.571 2.18376C219.993 -0.369206 223.985 -0.602994 226.886 1.06158C231.165 3.52103 235.415 5.9898 239.695 8.4586C236.823 6.89689 232.889 7.17749 228.566 9.6837C220.166 14.5371 211.75 19.3906 203.35 24.244C194.504 29.3406 187.353 41.75 187.353 51.9619C187.353 61.6688 187.353 71.3757 187.353 81.0826C187.353 86.067 189.062 89.6018 191.834 91.3131C187.554 88.8537 183.289 86.3942 179.039 83.9441Z" fill="#AF8EFF"/>
<path d="M224.387 45.7246C224.387 47.5481 225.867 48.1654 227.675 47.118C229.5 46.0706 230.964 43.7421 230.964 41.9186C230.964 40.095 229.485 39.4778 227.675 40.5252C225.867 41.5912 224.387 43.901 224.387 45.7246Z" fill="#FAFFFF"/>
<path d="M213.962 51.7561C213.962 53.5796 215.441 54.1969 217.25 53.1495C219.074 52.1021 220.539 49.7736 220.539 47.9501C220.539 46.1265 219.059 45.5093 217.25 46.5567C215.426 47.604 213.962 49.9325 213.962 51.7561Z" fill="#FAFFFF"/>
<path d="M203.523 57.7786C203.523 59.6021 205.002 60.2193 206.812 59.172C208.635 58.1152 210.1 55.796 210.1 53.9725C210.1 52.1489 208.62 51.5318 206.812 52.5791C204.987 53.6359 203.523 55.9644 203.523 57.7786Z" fill="#FAFFFF"/>
<path d="M478.271 230.782C473.474 233.559 468.65 236.327 463.853 239.105C466.28 237.59 467.759 234.494 467.759 230.136C467.759 222.038 467.759 213.94 467.759 205.851C467.759 196.92 461.484 186.081 453.758 181.611C441.883 174.747 430.007 167.902 418.117 161.038C414.326 158.85 410.894 158.607 408.381 159.972C413.192 157.185 418.002 154.398 422.827 151.612C425.369 150.143 428.858 150.359 432.721 152.594C444.597 159.458 456.472 166.303 468.362 173.167C476.088 177.637 482.363 188.494 482.363 197.406C482.363 205.514 482.363 213.594 482.363 221.692C482.363 226.19 480.797 229.323 478.271 230.782Z" fill="#923EFF"/>
<path d="M467.758 205.869C467.758 213.968 467.758 222.066 467.758 230.155C467.758 234.504 466.264 237.609 463.852 239.114C463.78 239.161 463.737 239.189 463.665 239.226C461.124 240.695 457.635 240.48 453.771 238.254C441.896 231.39 430.02 224.535 418.13 217.671L404.129 221.664C404.129 215.315 404.129 175.524 404.129 169.137C404.129 164.667 405.694 161.534 408.222 160.075C408.279 160.047 408.322 160 408.38 159.982C410.893 158.607 414.325 158.869 418.116 161.048C429.992 167.912 441.867 174.766 453.757 181.63C461.497 186.082 467.758 196.939 467.758 205.869Z" fill="#AF8EFF"/>
<path d="M428.456 194.152C428.456 196.059 426.905 196.723 425.009 195.62C423.1 194.507 421.563 192.085 421.563 190.168C421.563 188.26 423.1 187.606 425.009 188.709C426.905 189.803 428.456 192.244 428.456 194.152Z" fill="#FAFFFF"/>
<path d="M439.397 200.473C439.397 202.381 437.86 203.045 435.95 201.932C434.041 200.829 432.504 198.407 432.504 196.49C432.504 194.582 434.055 193.918 435.95 195.031C437.846 196.134 439.397 198.556 439.397 200.473Z" fill="#FAFFFF"/>
<path d="M450.354 206.786C450.354 208.703 448.818 209.357 446.908 208.254C444.998 207.15 443.461 204.719 443.461 202.811C443.461 200.904 444.998 200.24 446.908 201.343C448.789 202.437 450.354 204.897 450.354 206.786Z" fill="#FAFFFF"/>
<defs>
<radialGradient id="paint0_radial_164_1125" cx="0" cy="0" r="1" gradientUnits="userSpaceOnUse" gradientTransform="translate(-14.0464 -194.041) scale(641.168 640.721)">
<stop stop-color="#2E2C69"/>
<stop offset="0.31" stop-color="#2B2963"/>
<stop offset="1" stop-color="#1E1A4B"/>
</radialGradient>
<radialGradient id="paint1_radial_164_1125" cx="0" cy="0" r="1" gradientUnits="userSpaceOnUse" gradientTransform="translate(25.5942 -194.05) rotate(-90) scale(639.753 564.837)">
<stop stop-color="#2E2C69"/>
<stop offset="0.31" stop-color="#2B2963"/>
<stop offset="1" stop-color="#1E1A4B"/>
</radialGradient>
<radialGradient id="paint2_radial_164_1125" cx="0" cy="0" r="1" gradientUnits="userSpaceOnUse" gradientTransform="translate(-14.0448 -194.038) scale(641.165 640.719)">
<stop stop-color="#3B5285"/>
<stop offset="0.31" stop-color="#395081"/>
<stop offset="1" stop-color="#2F4773"/>
</radialGradient>
<linearGradient id="paint3_linear_164_1125" x1="218.805" y1="189.05" x2="232.697" y2="202.587" gradientUnits="userSpaceOnUse">
<stop stop-color="#8684BD"/>
<stop offset="0.74" stop-color="#4A4D9B"/>
<stop offset="1" stop-color="#4A4D9B"/>
</linearGradient>
<linearGradient id="paint4_linear_164_1125" x1="162.703" y1="163.198" x2="230.011" y2="165.05" gradientUnits="userSpaceOnUse">
<stop stop-color="#92BDD0"/>
<stop offset="1" stop-color="#82ABCC"/>
</linearGradient>
</defs>
</svg>
